<svg width="173" height="144" viewBox="0 0 173 144" fill="none" xmlns="http://www.w3.org/2000/svg">
<path d="M56.0994 59.1776C56.0994 59.1776 53.4782 31 75.1577 31C96.8373 31 94.9939 48.6839 94.9939 59.1776C94.9939 70.5065 104.855 79.1038 116.191 78.9991C127.418 78.8953 137 70.3962 137 59.1776C137 54.3194 137 48.6839 137 48.6839" stroke="#11CDEF" stroke-width="10" stroke-linecap="round"/>
<path d="M40 84C40 84 40 60.7577 40 45.2744C40 35.181 36.9507 23.57 30.2511 14.9941C21.0788 3.25283 5 5.10679 5 5.10679" stroke="#FB6340" stroke-width="10" stroke-linecap="round"/>
<path d="M25 95C25 95 86.9744 95 128.355 95C141.556 95 152.997 87.6747 158.274 81.3133C165.839 72.1938 168.855 63.3908 167.794 51.6265C166.765 40.2253 160.943 31.6096 152.446 23.8675C144.278 16.4257 128.355 15 128.355 15" stroke="#F5365C" stroke-width="10" stroke-linecap="round"/>
<path d="M77 107C77 107 110.646 107 129.033 107C133.411 107 139.34 109.757 142.666 116.478C144.417 120.017 144.892 127.299 141.291 132.275C136.764 138.53 128.918 140.715 121.903 137.583C113.773 133.953 113.148 122.67 113.148 122.67" stroke="#2DCE89" stroke-width="10" stroke-linecap="round"/>
<path d="M62.4462 107C66.7031 107 72.4689 109.757 75.7032 116.478C77.406 120.017 77.867 127.299 74.3654 132.275C69.9638 138.53 62.3345 140.715 55.5137 137.583C47.6081 133.953 47 122.67 47 122.67" stroke="#5E72E4" stroke-width="10" stroke-linecap="round"/>
</svg>
