<svg width="137" height="49" viewBox="0 0 137 49" fill="none" xmlns="http://www.w3.org/2000/svg">
<path d="M14.96 11.584V15.8809H0.0673828V11.584H14.96ZM4.36426 5.11426H10.248V30.7002C10.248 31.514 10.362 32.1406 10.5898 32.5801C10.834 33.0033 11.1676 33.2881 11.5908 33.4346C12.014 33.5811 12.5104 33.6543 13.0801 33.6543C13.487 33.6543 13.8776 33.6299 14.252 33.5811C14.6263 33.5322 14.9274 33.4834 15.1553 33.4346L15.1797 37.9268C14.6914 38.0732 14.1217 38.2035 13.4707 38.3174C12.8359 38.4313 12.1035 38.4883 11.2734 38.4883C9.92253 38.4883 8.72624 38.2523 7.68457 37.7803C6.6429 37.292 5.8291 36.5026 5.24316 35.4121C4.65723 34.3216 4.36426 32.873 4.36426 31.0664V5.11426Z" fill="#FB6340"/>
<path d="M17.792 25.085V24.5234C17.792 22.6191 18.0687 20.8532 18.6221 19.2256C19.1755 17.5817 19.973 16.1576 21.0146 14.9531C22.0726 13.7324 23.3584 12.7884 24.8721 12.1211C26.402 11.4375 28.1273 11.0957 30.0479 11.0957C31.9847 11.0957 33.71 11.4375 35.2236 12.1211C36.7536 12.7884 38.0475 13.7324 39.1055 14.9531C40.1634 16.1576 40.9691 17.5817 41.5225 19.2256C42.0758 20.8532 42.3525 22.6191 42.3525 24.5234V25.085C42.3525 26.9893 42.0758 28.7552 41.5225 30.3828C40.9691 32.0104 40.1634 33.4346 39.1055 34.6553C38.0475 35.8597 36.7617 36.8037 35.248 37.4873C33.7344 38.1546 32.0173 38.4883 30.0967 38.4883C28.1598 38.4883 26.4264 38.1546 24.8965 37.4873C23.3828 36.8037 22.097 35.8597 21.0391 34.6553C19.9811 33.4346 19.1755 32.0104 18.6221 30.3828C18.0687 28.7552 17.792 26.9893 17.792 25.085ZM23.6758 24.5234V25.085C23.6758 26.2731 23.7979 27.3962 24.042 28.4541C24.2861 29.512 24.6686 30.4398 25.1895 31.2373C25.7103 32.0348 26.3776 32.6615 27.1914 33.1172C28.0052 33.5729 28.9736 33.8008 30.0967 33.8008C31.1872 33.8008 32.1312 33.5729 32.9287 33.1172C33.7425 32.6615 34.4098 32.0348 34.9307 31.2373C35.4515 30.4398 35.834 29.512 36.0781 28.4541C36.3385 27.3962 36.4688 26.2731 36.4688 25.085V24.5234C36.4688 23.3516 36.3385 22.2448 36.0781 21.2031C35.834 20.1452 35.4434 19.2093 34.9062 18.3955C34.3854 17.5817 33.7181 16.9469 32.9043 16.4912C32.1068 16.0192 31.1546 15.7832 30.0479 15.7832C28.9411 15.7832 27.9808 16.0192 27.167 16.4912C26.3695 16.9469 25.7103 17.5817 25.1895 18.3955C24.6686 19.2093 24.2861 20.1452 24.042 21.2031C23.7979 22.2448 23.6758 23.3516 23.6758 24.5234Z" fill="#11CDEF"/>
<path d="M59.7598 0.5H65.6436V32.3604L65.082 38H59.7598V0.5ZM82.8799 24.5479V25.0605C82.8799 27.0137 82.6602 28.8122 82.2207 30.4561C81.7975 32.0837 81.1465 33.4997 80.2676 34.7041C79.4049 35.9085 78.3307 36.8444 77.0449 37.5117C75.7754 38.1628 74.3024 38.4883 72.626 38.4883C70.9821 38.4883 69.5498 38.179 68.3291 37.5605C67.1084 36.9421 66.083 36.0632 65.2529 34.9238C64.4391 33.7845 63.7799 32.4255 63.2754 30.8467C62.7708 29.2679 62.4128 27.5264 62.2012 25.6221V23.9863C62.4128 22.0658 62.7708 20.3242 63.2754 18.7617C63.7799 17.1829 64.4391 15.8239 65.2529 14.6846C66.083 13.529 67.1003 12.6419 68.3047 12.0234C69.5254 11.4049 70.9495 11.0957 72.5771 11.0957C74.2699 11.0957 75.7591 11.4212 77.0449 12.0723C78.347 12.7233 79.4294 13.651 80.292 14.8555C81.1546 16.0436 81.7975 17.4596 82.2207 19.1035C82.6602 20.7474 82.8799 22.5622 82.8799 24.5479ZM76.9961 25.0605V24.5479C76.9961 23.3597 76.8984 22.2448 76.7031 21.2031C76.5078 20.1452 76.1823 19.2174 75.7266 18.4199C75.2871 17.6224 74.6849 16.9958 73.9199 16.54C73.1712 16.068 72.2354 15.832 71.1123 15.832C70.0706 15.832 69.1755 16.0111 68.4268 16.3691C67.6781 16.7272 67.0514 17.2155 66.5469 17.834C66.0423 18.4525 65.6436 19.1686 65.3506 19.9824C65.0739 20.7962 64.8867 21.6751 64.7891 22.6191V27.0381C64.9355 28.2588 65.2448 29.3818 65.7168 30.4072C66.2051 31.4163 66.8887 32.2301 67.7676 32.8486C68.6465 33.4508 69.7777 33.752 71.1611 33.752C72.2516 33.752 73.1712 33.5322 73.9199 33.0928C74.6686 32.6533 75.2627 32.043 75.7021 31.2617C76.1579 30.4642 76.4834 29.5365 76.6787 28.4785C76.8903 27.4206 76.9961 26.2812 76.9961 25.0605Z" fill="#F5365C"/>
<path d="M103.754 31.7744V11.584H109.662V38H104.096L103.754 31.7744ZM104.584 26.2812L106.562 26.2324C106.562 28.0065 106.366 29.6423 105.976 31.1396C105.585 32.6208 104.983 33.9147 104.169 35.0215C103.355 36.112 102.313 36.9665 101.044 37.585C99.7744 38.1872 98.2526 38.4883 96.4785 38.4883C95.1927 38.4883 94.0127 38.3011 92.9385 37.9268C91.8643 37.5524 90.9365 36.9746 90.1553 36.1934C89.3903 35.4121 88.7962 34.3949 88.373 33.1416C87.9499 31.8883 87.7383 30.391 87.7383 28.6494V11.584H93.6221V28.6982C93.6221 29.6585 93.736 30.4642 93.9639 31.1152C94.1917 31.75 94.501 32.2627 94.8916 32.6533C95.2822 33.0439 95.738 33.3206 96.2588 33.4834C96.7796 33.6462 97.333 33.7275 97.9189 33.7275C99.5954 33.7275 100.914 33.402 101.874 32.751C102.851 32.0837 103.542 31.1885 103.949 30.0654C104.372 28.9424 104.584 27.681 104.584 26.2812Z" fill="#2DCE89"/>
<path d="M123.358 35.1191L130.536 11.584H136.835L126.239 42.0283C125.995 42.6794 125.678 43.3874 125.287 44.1523C124.896 44.9173 124.384 45.6416 123.749 46.3252C123.131 47.0251 122.357 47.5866 121.43 48.0098C120.502 48.4492 119.379 48.6689 118.061 48.6689C117.54 48.6689 117.035 48.6201 116.547 48.5225C116.075 48.4411 115.627 48.3516 115.204 48.2539L115.18 43.7617C115.342 43.778 115.538 43.7943 115.766 43.8105C116.01 43.8268 116.205 43.835 116.352 43.835C117.328 43.835 118.142 43.7129 118.793 43.4688C119.444 43.2409 119.973 42.8665 120.38 42.3457C120.803 41.8249 121.161 41.125 121.454 40.2461L123.358 35.1191ZM119.306 11.584L125.58 31.3594L126.63 37.5605L122.553 38.6104L112.958 11.584H119.306Z" fill="#172B4D"/>
</svg>
