<svg width="23" height="21" viewBox="0 0 23 21" fill="none" xmlns="http://www.w3.org/2000/svg">
<path fill-rule="evenodd" clip-rule="evenodd" d="M19.1257 2.49707H3.12573C2.86052 2.49707 2.60616 2.60243 2.41863 2.78996C2.23109 2.9775 2.12573 3.23185 2.12573 3.49707V17.4971C2.12573 17.7623 2.23109 18.0166 2.41863 18.2042C2.60616 18.3917 2.86052 18.4971 3.12573 18.4971H19.1257C19.3909 18.4971 19.6453 18.3917 19.8328 18.2042C20.0204 18.0166 20.1257 17.7623 20.1257 17.4971V3.49707C20.1257 3.23185 20.0204 2.9775 19.8328 2.78996C19.6453 2.60243 19.3909 2.49707 19.1257 2.49707ZM3.12573 0.49707C2.33008 0.49707 1.56702 0.813141 1.00441 1.37575C0.441803 1.93836 0.125732 2.70142 0.125732 3.49707V17.4971C0.125732 18.2927 0.441803 19.0558 1.00441 19.6184C1.56702 20.181 2.33008 20.4971 3.12573 20.4971H19.1257C19.9214 20.4971 20.6844 20.181 21.2471 19.6184C21.8097 19.0558 22.1257 18.2927 22.1257 17.4971V3.49707C22.1257 2.70142 21.8097 1.93836 21.2471 1.37575C20.6844 0.813141 19.9214 0.49707 19.1257 0.49707H3.12573Z" fill="#172B4D"/>
<path d="M14.4579 12.4053C14.3654 13.7927 14.3188 14.4864 13.8666 14.9094C13.4144 15.3328 12.7191 15.3328 11.328 15.3328H10.9234C9.53282 15.3328 8.83753 15.3328 8.3848 14.9094C7.9326 14.4864 7.8866 13.7927 7.79407 12.4053L7.55359 8.7981M14.6979 8.7981L14.5933 10.3664" stroke="#2DCE89" stroke-width="1.2" stroke-linecap="round"/>
<path d="M15.5693 7.22974H6.68213" stroke="#172B4D" stroke-width="1.2" stroke-linecap="round"/>
<path d="M8.25049 7.22971H8.30799C8.51838 7.22433 8.72225 7.15559 8.89294 7.03247C9.06363 6.90935 9.19319 6.73759 9.26468 6.53964L9.28245 6.4858L9.33316 6.33367C9.37655 6.2035 9.39851 6.13867 9.42726 6.08326C9.48383 5.97472 9.56502 5.88094 9.66433 5.80941C9.76364 5.73787 9.87831 5.69058 9.99918 5.67131C10.0603 5.66138 10.1288 5.66138 10.2658 5.66138H11.9857C12.1227 5.66138 12.1912 5.66138 12.2523 5.67131C12.3732 5.69058 12.4879 5.73787 12.5872 5.80941C12.6865 5.88094 12.7677 5.97472 12.8243 6.08326C12.853 6.13867 12.875 6.2035 12.9184 6.33367L12.9691 6.4858C13.0353 6.70603 13.1723 6.89827 13.3589 7.03276C13.5455 7.16724 13.7712 7.23647 14.001 7.22971" stroke="#172B4D" stroke-width="1.2"/>
<path d="M14.4579 12.4053C14.3654 13.7927 14.3188 14.4864 13.8666 14.9094C13.4144 15.3328 12.7191 15.3328 11.328 15.3328H10.9234C9.53282 15.3328 8.83753 15.3328 8.3848 14.9094C7.9326 14.4864 7.8866 13.7927 7.79407 12.4053L7.55359 8.7981" stroke="#172B4D" stroke-width="1.2" stroke-linecap="round"/>
</svg>
