<svg width="23" height="21" viewBox="0 0 23 21" fill="none" xmlns="http://www.w3.org/2000/svg">
<path fill-rule="evenodd" clip-rule="evenodd" d="M19.2516 2.49707H3.25165C2.98643 2.49707 2.73208 2.60243 2.54454 2.78996C2.357 2.9775 2.25165 3.23185 2.25165 3.49707V17.4971C2.25165 17.7623 2.357 18.0166 2.54454 18.2042C2.73208 18.3917 2.98643 18.4971 3.25165 18.4971H19.2516C19.5169 18.4971 19.7712 18.3917 19.9588 18.2042C20.1463 18.0166 20.2516 17.7623 20.2516 17.4971V3.49707C20.2516 3.23185 20.1463 2.9775 19.9588 2.78996C19.7712 2.60243 19.5169 2.49707 19.2516 2.49707ZM3.25165 0.49707C2.456 0.49707 1.69294 0.813141 1.13033 1.37575C0.567718 1.93836 0.251648 2.70142 0.251648 3.49707V17.4971C0.251648 18.2927 0.567718 19.0558 1.13033 19.6184C1.69294 20.181 2.456 20.4971 3.25165 20.4971H19.2516C20.0473 20.4971 20.8104 20.181 21.373 19.6184C21.9356 19.0558 22.2516 18.2927 22.2516 17.4971V3.49707C22.2516 2.70142 21.9356 1.93836 21.373 1.37575C20.8104 0.813141 20.0473 0.49707 19.2516 0.49707H3.25165Z" fill="#172B4D"/>
<path d="M16.7794 5.02368H12.5414V9.26163H16.7794V5.02368Z" fill="#172B4D"/>
<path d="M9.96188 5.02368H5.72394V9.26163H9.96188V5.02368Z" fill="#172B4D"/>
<path d="M16.7794 11.7324H12.5414V15.9704H16.7794V11.7324Z" fill="#172B4D"/>
<path d="M9.96188 11.7324H5.72394V15.9704H9.96188V11.7324Z" fill="#172B4D"/>
</svg>
