<svg width="38" height="38" viewBox="0 0 38 38" fill="none" xmlns="http://www.w3.org/2000/svg">
<circle cx="18.9235" cy="19.1927" r="18.2095" fill="#D2F5E6"/>
<path fill-rule="evenodd" clip-rule="evenodd" d="M8.49561 19.1928C8.49561 13.4335 13.1642 8.76489 18.9235 8.76489C24.6828 8.76489 29.3514 13.4335 29.3514 19.1928C29.3514 24.9521 24.6828 29.6206 18.9235 29.6206C13.1642 29.6206 8.49561 24.9521 8.49561 19.1928ZM18.9235 10.8505C16.711 10.8505 14.5891 11.7294 13.0246 13.2939C11.4601 14.8584 10.5812 16.9803 10.5812 19.1928C10.5812 21.4053 11.4601 23.5272 13.0246 25.0917C14.5891 26.6562 16.711 27.5351 18.9235 27.5351C21.136 27.5351 23.2579 26.6562 24.8224 25.0917C26.3869 23.5272 27.2658 21.4053 27.2658 19.1928C27.2658 16.9803 26.3869 14.8584 24.8224 13.2939C23.2579 11.7294 21.136 10.8505 18.9235 10.8505Z" fill="#172B4D"/>
<path fill-rule="evenodd" clip-rule="evenodd" d="M19.9662 13.9788C19.9662 13.7023 19.8563 13.437 19.6608 13.2415C19.4652 13.0459 19.2 12.936 18.9234 12.936C18.6468 12.936 18.3816 13.0459 18.1861 13.2415C17.9905 13.437 17.8806 13.7023 17.8806 13.9788V18.15H13.7095C13.4329 18.15 13.1677 18.2598 12.9721 18.4554C12.7766 18.651 12.6667 18.9162 12.6667 19.1928C12.6667 19.4693 12.7766 19.7346 12.9721 19.9301C13.1677 20.1257 13.4329 20.2356 13.7095 20.2356H17.8806V24.4067C17.8806 24.6833 17.9905 24.9485 18.1861 25.1441C18.3816 25.3396 18.6468 25.4495 18.9234 25.4495C19.2 25.4495 19.4652 25.3396 19.6608 25.1441C19.8563 24.9485 19.9662 24.6833 19.9662 24.4067V20.2356H24.1374C24.4139 20.2356 24.6792 20.1257 24.8747 19.9301C25.0703 19.7346 25.1801 19.4693 25.1801 19.1928C25.1801 18.9162 25.0703 18.651 24.8747 18.4554C24.6792 18.2598 24.4139 18.15 24.1374 18.15H19.9662V13.9788Z" fill="#172B4D"/>
</svg>
