<svg width="27" height="27" viewBox="0 0 27 27" fill="none" xmlns="http://www.w3.org/2000/svg">
<circle cx="13.5" cy="13.5" r="13.5" fill="#172B4D"/>
<path d="M22.706 9.04201L20.374 11.374L16.624 7.62401L18.956 5.29201C19.0488 5.19907 19.159 5.12533 19.2803 5.07502C19.4016 5.02471 19.5317 4.99881 19.663 4.99881C19.7944 4.99881 19.9244 5.02471 20.0457 5.07502C20.167 5.12533 20.2772 5.19907 20.37 5.29201L22.706 7.62801C22.799 7.7208 22.8727 7.831 22.923 7.95232C22.9733 8.07363 22.9992 8.20368 22.9992 8.33501C22.9992 8.46634 22.9733 8.59639 22.923 8.7177C22.8727 8.83902 22.799 8.94922 22.706 9.04201V9.04201ZM5.99902 18.248L16.064 8.18401L19.814 11.934L9.74902 21.998H6.00002V18.248H5.99902ZM19.621 6.04401L18.081 7.58301L20.418 9.91801L21.956 8.37901L19.621 6.04401ZM18.357 11.979L16.022 9.64301L7.00002 18.664V21H9.33602L18.357 11.979V11.979Z" fill="#DBE6F0"/>
</svg>
