<svg width="15" height="13" viewBox="0 0 15 13" fill="none" xmlns="http://www.w3.org/2000/svg">
<path d="M7.97795 7.86002C7.68031 8.02404 7.31938 8.02404 7.02174 7.86002L0.0817871 4.03149V11.1982C0.0826049 12.0173 0.746373 12.681 1.56542 12.6818H13.4345C14.2536 12.681 14.9173 12.0173 14.9182 11.1982V4.03149L7.97795 7.86002Z" fill="#ADB5BD"/>
<path d="M13.4345 0.318237H1.56542C0.746373 0.319055 0.082605 0.982823 0.0817871 1.80187V3.03824C0.0817529 3.12834 0.130732 3.21133 0.209627 3.25485L7.38054 7.21121C7.45488 7.25222 7.54506 7.25222 7.6194 7.21121L14.7903 3.25485C14.8692 3.21133 14.9182 3.12834 14.9182 3.03824V1.80187C14.9173 0.982823 14.2536 0.319055 13.4345 0.318237Z" fill="#ADB5BD"/>
</svg>
