<svg width="38" height="40" viewBox="0 0 38 40" fill="none" xmlns="http://www.w3.org/2000/svg">
<g filter="url(#filter0_dd_10_1299)">
<rect x="6" y="2" width="26" height="28" rx="4" fill="#3B5999"/>
</g>
<path d="M21.1417 12.7143H16.856C16.1462 12.7143 15.5703 13.2902 15.5703 14V18.2857C15.5703 18.9955 16.1462 19.5714 16.856 19.5714H19.231V16.9152H18.3382V15.8795H19.231V15.1161C19.231 14.2321 19.7757 13.75 20.5658 13.75C20.9408 13.75 21.2667 13.7768 21.3605 13.7902V14.7143L20.8158 14.7188C20.3828 14.7188 20.3025 14.9196 20.3025 15.2187V15.8795H21.3248L21.1908 16.9152H20.3025V19.5714H21.1417C21.8516 19.5714 22.4275 18.9955 22.4275 18.2857V14C22.4275 13.2902 21.8516 12.7143 21.1417 12.7143Z" fill="white"/>
<defs>
<filter id="filter0_dd_10_1299" x="0" y="0" width="38" height="40" filterUnits="userSpaceOnUse" color-interpolation-filters="sRGB">
<feFlood flood-opacity="0" result="BackgroundImageFix"/>
<feColorMatrix in="SourceAlpha" type="matrix" values="0 0 0 0 0 0 0 0 0 0 0 0 0 0 0 0 0 0 127 0" result="hardAlpha"/>
<feOffset dy="1"/>
<feGaussianBlur stdDeviation="1.5"/>
<feColorMatrix type="matrix" values="0 0 0 0 0 0 0 0 0 0 0 0 0 0 0 0 0 0 0.08 0"/>
<feBlend mode="normal" in2="BackgroundImageFix" result="effect1_dropShadow_10_1299"/>
<feColorMatrix in="SourceAlpha" type="matrix" values="0 0 0 0 0 0 0 0 0 0 0 0 0 0 0 0 0 0 127 0" result="hardAlpha"/>
<feOffset dy="4"/>
<feGaussianBlur stdDeviation="3"/>
<feColorMatrix type="matrix" values="0 0 0 0 0.196078 0 0 0 0 0.196078 0 0 0 0 0.364706 0 0 0 0.11 0"/>
<feBlend mode="normal" in2="effect1_dropShadow_10_1299" result="effect2_dropShadow_10_1299"/>
<feBlend mode="normal" in="SourceGraphic" in2="effect2_dropShadow_10_1299" result="shape"/>
</filter>
</defs>
</svg>
