<svg width="32" height="40" viewBox="0 0 32 40" fill="none" xmlns="http://www.w3.org/2000/svg">
<path d="M25.5236 23.5679V27.3292" stroke="#F5365C" stroke-width="1.5" stroke-linecap="round"/>
<path d="M25.5236 10.4033V14.1646" stroke="#2DCE89" stroke-width="1.5" stroke-linecap="round"/>
<path d="M1.07495 16.0453V21.6873C1.07495 28.7792 1.07495 32.3262 3.27909 34.5284C5.48134 36.7326 9.02827 36.7326 16.1202 36.7326C23.2122 36.7326 26.7591 36.7326 28.9614 34.5284C31.1655 32.3262 31.1655 28.7792 31.1655 21.6873V16.0453C31.1655 8.95332 31.1655 5.40639 28.9614 3.20413C26.7591 1 23.2122 1 16.1202 1C9.02827 1 5.48134 1 3.27909 3.20413C2.04913 4.43221 1.50562 6.07779 1.26678 8.52264" stroke="#11CDEF" stroke-width="1.5" stroke-linecap="round"/>
<path d="M25.5237 36.7327V38.6133H23.643V36.7327M8.5977 36.7327V38.6133H6.71704V36.7327" stroke="#11CDEF" stroke-width="1.5" stroke-linejoin="round"/>
<path d="M31.1655 18.8662H21.7622M1.07495 18.8662H14.2396" stroke="#11CDEF" stroke-width="1.5" stroke-linecap="round"/>
</svg>
