<svg width="38" height="40" viewBox="0 0 38 40" fill="none" xmlns="http://www.w3.org/2000/svg">
<g filter="url(#filter0_dd_10_1300)">
<rect x="6" y="2" width="26" height="28" rx="4" fill="#E4405F"/>
</g>
<path d="M20.1417 16.1429C20.1417 16.7723 19.6283 17.2857 18.9989 17.2857C18.3694 17.2857 17.856 16.7723 17.856 16.1429C17.856 15.5134 18.3694 15 18.9989 15C19.6283 15 20.1417 15.5134 20.1417 16.1429ZM20.7578 16.1429C20.7578 15.1696 19.9721 14.3839 18.9989 14.3839C18.0257 14.3839 17.24 15.1696 17.24 16.1429C17.24 17.1161 18.0257 17.9018 18.9989 17.9018C19.9721 17.9018 20.7578 17.1161 20.7578 16.1429ZM21.24 14.3125C21.24 14.0848 21.0569 13.9018 20.8292 13.9018C20.6016 13.9018 20.4185 14.0848 20.4185 14.3125C20.4185 14.5402 20.6016 14.7232 20.8292 14.7232C21.0569 14.7232 21.24 14.5402 21.24 14.3125ZM18.9989 13.3304C19.4989 13.3304 20.5703 13.2902 21.0212 13.4687C21.1775 13.5312 21.2935 13.6071 21.4141 13.7277C21.5346 13.8482 21.6105 13.9643 21.673 14.1205C21.8516 14.5714 21.8114 15.6429 21.8114 16.1429C21.8114 16.6429 21.8516 17.7143 21.673 18.1652C21.6105 18.3214 21.5346 18.4375 21.4141 18.558C21.2935 18.6786 21.1775 18.7545 21.0212 18.817C20.5703 18.9955 19.4989 18.9554 18.9989 18.9554C18.4989 18.9554 17.4275 18.9955 16.9766 18.817C16.8203 18.7545 16.7042 18.6786 16.5837 18.558C16.4632 18.4375 16.3873 18.3214 16.3248 18.1652C16.1462 17.7143 16.1864 16.6429 16.1864 16.1429C16.1864 15.6429 16.1462 14.5714 16.3248 14.1205C16.3873 13.9643 16.4632 13.8482 16.5837 13.7277C16.7042 13.6071 16.8203 13.5312 16.9766 13.4687C17.4275 13.2902 18.4989 13.3304 18.9989 13.3304ZM22.4275 16.1429C22.4275 15.6696 22.4319 15.2009 22.4051 14.7277C22.3783 14.1786 22.2533 13.692 21.8516 13.2902C21.4498 12.8884 20.9632 12.7634 20.4141 12.7366C19.9408 12.7098 19.4721 12.7143 18.9989 12.7143C18.5257 12.7143 18.0569 12.7098 17.5837 12.7366C17.0346 12.7634 16.548 12.8884 16.1462 13.2902C15.7444 13.692 15.6194 14.1786 15.5926 14.7277C15.5658 15.2009 15.5703 15.6696 15.5703 16.1429C15.5703 16.6161 15.5658 17.0848 15.5926 17.558C15.6194 18.1071 15.7444 18.5937 16.1462 18.9955C16.548 19.3973 17.0346 19.5223 17.5837 19.5491C18.0569 19.5759 18.5257 19.5714 18.9989 19.5714C19.4721 19.5714 19.9408 19.5759 20.4141 19.5491C20.9632 19.5223 21.4498 19.3973 21.8516 18.9955C22.2533 18.5937 22.3783 18.1071 22.4051 17.558C22.4319 17.0848 22.4275 16.6161 22.4275 16.1429Z" fill="white"/>
<defs>
<filter id="filter0_dd_10_1300" x="0" y="0" width="38" height="40" filterUnits="userSpaceOnUse" color-interpolation-filters="sRGB">
<feFlood flood-opacity="0" result="BackgroundImageFix"/>
<feColorMatrix in="SourceAlpha" type="matrix" values="0 0 0 0 0 0 0 0 0 0 0 0 0 0 0 0 0 0 127 0" result="hardAlpha"/>
<feOffset dy="1"/>
<feGaussianBlur stdDeviation="1.5"/>
<feColorMatrix type="matrix" values="0 0 0 0 0 0 0 0 0 0 0 0 0 0 0 0 0 0 0.08 0"/>
<feBlend mode="normal" in2="BackgroundImageFix" result="effect1_dropShadow_10_1300"/>
<feColorMatrix in="SourceAlpha" type="matrix" values="0 0 0 0 0 0 0 0 0 0 0 0 0 0 0 0 0 0 127 0" result="hardAlpha"/>
<feOffset dy="4"/>
<feGaussianBlur stdDeviation="3"/>
<feColorMatrix type="matrix" values="0 0 0 0 0.196078 0 0 0 0 0.196078 0 0 0 0 0.364706 0 0 0 0.11 0"/>
<feBlend mode="normal" in2="effect1_dropShadow_10_1300" result="effect2_dropShadow_10_1300"/>
<feBlend mode="normal" in="SourceGraphic" in2="effect2_dropShadow_10_1300" result="shape"/>
</filter>
</defs>
</svg>
