<svg width="23" height="21" viewBox="0 0 23 21" fill="none" xmlns="http://www.w3.org/2000/svg">
<path fill-rule="evenodd" clip-rule="evenodd" d="M19.2516 2.49695H3.25165C2.98643 2.49695 2.73208 2.60231 2.54454 2.78984C2.357 2.97738 2.25165 3.23173 2.25165 3.49695V17.4969C2.25165 17.7622 2.357 18.0165 2.54454 18.2041C2.73208 18.3916 2.98643 18.4969 3.25165 18.4969H19.2516C19.5169 18.4969 19.7712 18.3916 19.9588 18.2041C20.1463 18.0165 20.2516 17.7622 20.2516 17.4969V3.49695C20.2516 3.23173 20.1463 2.97738 19.9588 2.78984C19.7712 2.60231 19.5169 2.49695 19.2516 2.49695ZM3.25165 0.496948C2.456 0.496948 1.69294 0.813019 1.13033 1.37563C0.567718 1.93824 0.251648 2.7013 0.251648 3.49695V17.4969C0.251648 18.2926 0.567718 19.0557 1.13033 19.6183C1.69294 20.1809 2.456 20.4969 3.25165 20.4969H19.2516C20.0473 20.4969 20.8104 20.1809 21.373 19.6183C21.9356 19.0557 22.2516 18.2926 22.2516 17.4969V3.49695C22.2516 2.7013 21.9356 1.93824 21.373 1.37563C20.8104 0.813019 20.0473 0.496948 19.2516 0.496948H3.25165ZM5.25165 5.49695H7.25165V7.49695H5.25165V5.49695ZM10.2516 5.49695C9.98643 5.49695 9.73208 5.60231 9.54454 5.78984C9.357 5.97738 9.25165 6.23173 9.25165 6.49695C9.25165 6.76216 9.357 7.01652 9.54454 7.20405C9.73208 7.39159 9.98643 7.49695 10.2516 7.49695H16.2516C16.5169 7.49695 16.7712 7.39159 16.9588 7.20405C17.1463 7.01652 17.2516 6.76216 17.2516 6.49695C17.2516 6.23173 17.1463 5.97738 16.9588 5.78984C16.7712 5.60231 16.5169 5.49695 16.2516 5.49695H10.2516ZM7.25165 9.49695H5.25165V11.4969H7.25165V9.49695ZM9.25165 10.4969C9.25165 10.2317 9.357 9.97738 9.54454 9.78984C9.73208 9.60231 9.98643 9.49695 10.2516 9.49695H16.2516C16.5169 9.49695 16.7712 9.60231 16.9588 9.78984C17.1463 9.97738 17.2516 10.2317 17.2516 10.4969C17.2516 10.7622 17.1463 11.0165 16.9588 11.2041C16.7712 11.3916 16.5169 11.4969 16.2516 11.4969H10.2516C9.98643 11.4969 9.73208 11.3916 9.54454 11.2041C9.357 11.0165 9.25165 10.7622 9.25165 10.4969ZM7.25165 13.4969H5.25165V15.4969H7.25165V13.4969ZM9.25165 14.4969C9.25165 14.2317 9.357 13.9774 9.54454 13.7898C9.73208 13.6023 9.98643 13.4969 10.2516 13.4969H16.2516C16.5169 13.4969 16.7712 13.6023 16.9588 13.7898C17.1463 13.9774 17.2516 14.2317 17.2516 14.4969C17.2516 14.7622 17.1463 15.0165 16.9588 15.2041C16.7712 15.3916 16.5169 15.4969 16.2516 15.4969H10.2516C9.98643 15.4969 9.73208 15.3916 9.54454 15.2041C9.357 15.0165 9.25165 14.7622 9.25165 14.4969Z" fill="#172B4D"/>
</svg>
