<svg width="37" height="39" viewBox="0 0 37 39" fill="none" xmlns="http://www.w3.org/2000/svg">
<path d="M1.00004 33.0633C1.00004 34.4061 1.52704 35.694 2.46511 36.6436C3.40318 37.5931 4.67548 38.1266 6.00211 38.1266L36.0145 38.1266L36.0145 30.5316C36.0145 29.8602 35.751 29.2162 35.282 28.7415C34.813 28.2667 34.1768 28 33.5135 28L6.00211 28C4.67548 28 3.40318 28.5334 2.46511 29.483C1.52704 30.4325 1.00004 31.7204 1.00004 33.0633Z" stroke="#F5365C" stroke-width="1.2" stroke-linejoin="round"/>
<path d="M0.725384 6.06327C0.725384 7.40614 1.25239 8.69402 2.19046 9.64358C3.12853 10.5931 4.40082 11.1266 5.72745 11.1266L35.7399 11.1266L35.7399 3.53161C35.7399 2.86017 35.4764 2.21624 35.0073 1.74146C34.5383 1.26668 33.9021 0.999953 33.2388 0.999953L5.72745 0.999952C4.40082 0.999952 3.12853 1.53341 2.19046 2.48296C1.25239 3.43252 0.725384 4.72039 0.725384 6.06327Z" stroke="#2DCE89" stroke-width="1.2" stroke-linejoin="round"/>
<path d="M0.725384 19.5301C0.725384 20.8729 1.25239 22.1608 2.19046 23.1104C3.12853 24.0599 4.40082 24.5934 5.72745 24.5934L35.7399 24.5934L35.7399 16.9984C35.7399 16.327 35.4764 15.683 35.0073 15.2083C34.5383 14.7335 33.9021 14.4667 33.2388 14.4667L5.72745 14.4667C4.40082 14.4667 3.12853 15.0002 2.19046 15.9498C1.25239 16.8993 0.725384 18.1872 0.725384 19.5301Z" stroke="#11CDEF" stroke-width="1.2" stroke-linejoin="round"/>
</svg>
