<svg width="82" height="82" viewBox="0 0 82 82" fill="none" xmlns="http://www.w3.org/2000/svg">
<circle cx="41" cy="41" r="41" fill="#172B4D"/>
<path d="M21 57.2115C21 58.7467 21.6024 60.2191 22.6749 61.3046C23.7473 62.3901 25.2018 63 26.7184 63L61.0291 63L61.0291 54.3173C61.0291 53.5497 60.7278 52.8136 60.1916 52.2708C59.6554 51.728 58.9281 51.4231 58.1698 51.4231L26.7184 51.4231C25.2018 51.4231 23.7473 52.0329 22.6749 53.1185C21.6024 54.204 21 55.6763 21 57.2115Z" stroke="#F5365C" stroke-width="1.2" stroke-linejoin="round"/>
<path d="M21 25.7884C21 27.3236 21.6024 28.796 22.6749 29.8815C23.7473 30.9671 25.2018 31.5769 26.7184 31.5769L61.0291 31.5769L61.0291 22.8942C61.0291 22.1266 60.7278 21.3905 60.1916 20.8477C59.6554 20.3049 58.9281 20 58.1698 20L26.7184 20C25.2018 20 23.7473 20.6098 22.6749 21.6954C21.6024 22.7809 21 24.2532 21 25.7884Z" stroke="#2DCE89" stroke-width="1.2" stroke-linejoin="round"/>
<path d="M21 42.3269C21 43.8621 21.6024 45.3344 22.6749 46.42C23.7473 47.5055 25.2018 48.1154 26.7184 48.1154L61.0291 48.1154L61.0291 39.4327C61.0291 38.6651 60.7278 37.9289 60.1916 37.3861C59.6554 36.8434 58.9281 36.5384 58.1698 36.5384L26.7184 36.5384C25.2018 36.5384 23.7473 37.1483 22.6749 38.2338C21.6024 39.3194 21 40.7917 21 42.3269Z" stroke="#11CDEF" stroke-width="1.2" stroke-linejoin="round"/>
</svg>
