<svg width="37" height="38" viewBox="0 0 37 38" fill="none" xmlns="http://www.w3.org/2000/svg">
<circle cx="18.6518" cy="19.1927" r="18.2095" fill="#DBE6F0"/>
<path d="M28.9526 17.246H27.8549C27.6845 14.9216 26.641 12.7478 24.9338 11.1611C23.2267 9.57452 20.9824 8.69263 18.6518 8.69263C16.3211 8.69263 14.0768 9.57452 12.3697 11.1611C10.6625 12.7478 9.61897 14.9216 9.44863 17.246H8.35095C8.18021 17.246 8.01645 17.3138 7.89572 17.4346C7.77498 17.5553 7.70715 17.7191 7.70715 17.8898C7.71098 19.914 8.27418 21.8978 9.33455 23.622C10.3949 25.3462 11.9112 26.7439 13.716 27.6605V28.1906C13.716 28.589 13.8742 28.9711 14.1559 29.2528C14.4377 29.5345 14.8197 29.6928 15.2182 29.6928H22.0854C22.4838 29.6928 22.8659 29.5345 23.1476 29.2528C23.4293 28.9711 23.5876 28.589 23.5876 28.1906V27.6605C25.3923 26.7439 26.9086 25.3462 27.969 23.622C29.0293 21.8978 29.5925 19.914 29.5964 17.8898C29.5964 17.7191 29.5285 17.5553 29.4078 17.4346C29.2871 17.3138 29.1233 17.246 28.9526 17.246ZM23.6133 11.6975C23.9249 11.947 24.2172 12.2196 24.4878 12.513C23.2928 12.885 22.186 13.4965 21.235 14.3102C20.284 15.1239 19.5088 16.1228 18.9565 17.246H15.3619C15.869 15.6311 16.8772 14.2197 18.2405 13.2165C19.6038 12.2132 21.2511 11.6703 22.9438 11.6664C23.1669 11.6664 23.3912 11.6782 23.6133 11.6975ZM25.3365 13.6128C26.0385 14.7044 26.4601 15.9524 26.5641 17.246H20.4201C20.9583 16.3452 21.6701 15.5602 22.5141 14.9365C23.358 14.3128 24.3174 13.8629 25.3365 13.6128ZM18.6518 9.9496C19.6353 9.94799 20.6106 10.1299 21.5274 10.4861C19.7565 10.7656 18.1047 11.5532 16.7726 12.7531C15.4405 13.953 14.4853 15.5138 14.0228 17.246H10.7395C10.9033 15.2593 11.8076 13.4066 13.2731 12.0552C14.7386 10.7038 16.6583 9.95227 18.6518 9.9496ZM22.6755 26.6712C22.5634 26.7226 22.4683 26.8052 22.4018 26.9091C22.3352 27.0129 22.2998 27.1337 22.3 27.2571V28.1906C22.3 28.2475 22.2773 28.3021 22.2371 28.3424C22.1969 28.3826 22.1423 28.4052 22.0854 28.4052H15.2182C15.1612 28.4052 15.1067 28.3826 15.0664 28.3424C15.0262 28.3021 15.0036 28.2475 15.0036 28.1906V27.2571C15.0037 27.1337 14.9683 27.0129 14.9018 26.9091C14.8352 26.8052 14.7402 26.7226 14.628 26.6712C13.0487 25.9429 11.6944 24.8031 10.707 23.3714C9.71968 21.9397 9.13567 20.2687 9.01621 18.5336H28.2873C28.1678 20.2687 27.5838 21.9397 26.5965 23.3714C25.6091 24.8031 24.2548 25.9429 22.6755 26.6712Z" fill="#172B4D"/>
</svg>
