<svg width="37" height="38" viewBox="0 0 37 38" fill="none" xmlns="http://www.w3.org/2000/svg">
<circle cx="18.5375" cy="19.1927" r="18.2095" fill="#FEDCE3"/>
<path d="M23.9951 10.7166C21.7411 10.7166 19.7677 11.6858 18.5375 13.3242C17.3074 11.6858 15.3339 10.7166 13.0799 10.7166C11.2857 10.7186 9.56556 11.4322 8.29687 12.7009C7.02817 13.9696 6.31452 15.6898 6.3125 17.484C6.3125 25.1246 17.6414 31.3092 18.1238 31.5646C18.251 31.633 18.3931 31.6688 18.5375 31.6688C18.6819 31.6688 18.824 31.633 18.9512 31.5646C19.4337 31.3092 30.7625 25.1246 30.7625 17.484C30.7605 15.6898 30.0469 13.9696 28.7782 12.7009C27.5095 11.4322 25.7893 10.7186 23.9951 10.7166ZM18.5375 29.7963C16.5444 28.6349 8.05893 23.3443 8.05893 17.484C8.06066 16.1529 8.59022 14.8768 9.53146 13.9355C10.4727 12.9943 11.7488 12.4647 13.0799 12.463C15.2029 12.463 16.9854 13.5938 17.7298 15.4101C17.7956 15.5702 17.9075 15.7072 18.0513 15.8036C18.1951 15.9 18.3644 15.9515 18.5375 15.9515C18.7107 15.9515 18.8799 15.9 19.0237 15.8036C19.1675 15.7072 19.2795 15.5702 19.3452 15.4101C20.0897 13.5905 21.8721 12.463 23.9951 12.463C25.3262 12.4647 26.6023 12.9943 27.5436 13.9355C28.4848 14.8768 29.0144 16.1529 29.0161 17.484C29.0161 23.3356 20.5284 28.6338 18.5375 29.7963Z" fill="#172B4D"/>
</svg>
