<svg width="17" height="17" viewBox="0 0 17 17" fill="none" xmlns="http://www.w3.org/2000/svg">
<path fill-rule="evenodd" clip-rule="evenodd" d="M8.50005 0.834595C4.27317 0.834595 0.834595 4.27342 0.834595 8.50005C0.834595 12.7267 4.27317 16.1655 8.50005 16.1655C12.7269 16.1655 16.1655 12.7267 16.1655 8.50005C16.1655 4.27342 12.7269 0.834595 8.50005 0.834595ZM5.53278 7.51096C5.53278 5.87475 6.86385 4.54369 8.50005 4.54369C10.1363 4.54369 11.4673 5.87475 11.4673 7.51096V8.25278C11.4673 9.88898 10.1363 11.22 8.50005 11.22C6.86385 11.22 5.53278 9.88898 5.53278 8.25278V7.51096ZM4.10131 14.1572C5.31691 15.1045 6.84307 15.671 8.50005 15.671C10.1568 15.671 11.6829 15.1047 12.8985 14.1574C12.1871 12.9485 10.9068 12.2091 9.48914 12.2091H7.51096C6.09161 12.2091 4.81123 12.9485 4.10131 14.1572Z" fill="#ADB5BD"/>
</svg>
