<svg width="82" height="83" viewBox="0 0 82 83" fill="none" xmlns="http://www.w3.org/2000/svg">
<circle cx="40.9969" cy="41.0482" r="41" fill="#172B4D"/>
<path d="M32.6027 37.5077C32.6027 37.5077 31.8789 29.7273 37.8651 29.7273C43.8512 29.7273 43.3422 34.6102 43.3422 37.5077C43.3422 40.6358 46.0649 43.0097 49.1953 42.9808C52.2951 42.9521 54.9409 40.6054 54.9409 37.5077C54.9409 36.1662 54.9409 34.6102 54.9409 34.6102" stroke="#11CDEF" stroke-width="2" stroke-linecap="round"/>
<path d="M28.1573 44.3617C28.1573 44.3617 28.1574 37.944 28.1573 33.6688C28.1573 30.8818 27.3154 27.6758 25.4655 25.3078C22.9328 22.0658 18.4932 22.5777 18.4932 22.5777" stroke="#FB6340" stroke-width="2" stroke-linecap="round"/>
<path d="M24.0155 47.399C24.0155 47.399 41.1278 47.399 52.5539 47.399C56.199 47.399 59.358 45.3763 60.8151 43.6198C62.9039 41.1018 63.7368 38.6711 63.4436 35.4227C63.1595 32.2747 61.552 29.8957 59.2058 27.7579C56.9505 25.7031 52.5539 25.3094 52.5539 25.3094" stroke="#F5365C" stroke-width="2" stroke-linecap="round"/>
<path d="M38.3737 50.7124C38.3737 50.7124 47.6641 50.7124 52.741 50.7124C53.9498 50.7124 55.587 51.4736 56.5055 53.3295C56.989 54.3065 57.1199 56.3173 56.1256 57.6913C54.8757 59.4184 52.7093 60.0217 50.7724 59.1569C48.5275 58.1545 48.3548 55.0393 48.3548 55.0393" stroke="#2DCE89" stroke-width="2" stroke-linecap="round"/>
<path d="M34.3552 50.7124C35.5305 50.7124 37.1226 51.4736 38.0157 53.3295C38.4858 54.3065 38.6131 56.3173 37.6463 57.6913C36.4309 59.4184 34.3243 60.0217 32.4409 59.1569C30.2581 58.1545 30.0901 55.0393 30.0901 55.0393" stroke="#5E72E4" stroke-width="2" stroke-linecap="round"/>
</svg>
