<svg width="47" height="39" viewBox="0 0 47 39" fill="none" xmlns="http://www.w3.org/2000/svg">
<path d="M15.1096 15.9595C15.1096 15.9595 14.3858 8.17908 20.372 8.17908C26.3581 8.17908 25.8491 13.0619 25.8491 15.9595C25.8491 19.0876 28.5718 21.4615 31.7022 21.4325C34.802 21.4039 37.4478 19.0571 37.4478 15.9595C37.4478 14.618 37.4478 13.0619 37.4478 13.0619" stroke="#11CDEF" stroke-width="2" stroke-linecap="round"/>
<path d="M10.6642 22.8134C10.6642 22.8134 10.6642 16.3958 10.6642 12.1205C10.6642 9.33355 9.82222 6.12755 7.97234 3.75957C5.43966 0.517572 1.00001 1.02949 1.00001 1.02949" stroke="#FB6340" stroke-width="2" stroke-linecap="round"/>
<path d="M6.52234 25.8508C6.52234 25.8508 23.6347 25.8508 35.0608 25.8508C38.7058 25.8508 41.8648 23.8281 43.3219 22.0716C45.4107 19.5535 46.2436 17.1229 45.9505 13.8745C45.6663 10.7264 44.0589 8.34746 41.7126 6.20971C39.4574 4.1549 35.0608 3.76123 35.0608 3.76123" stroke="#F5365C" stroke-width="2" stroke-linecap="round"/>
<path d="M20.8806 29.1642C20.8806 29.1642 30.171 29.1642 35.2479 29.1642C36.4567 29.1642 38.0939 29.9254 39.0124 31.7813C39.4959 32.7583 39.6268 34.7691 38.6325 36.1431C37.3826 37.8701 35.2162 38.4735 33.2793 37.6086C31.0344 36.6063 30.8617 33.4911 30.8617 33.4911" stroke="#2DCE89" stroke-width="2" stroke-linecap="round"/>
<path d="M16.862 29.1642C18.0374 29.1642 19.6295 29.9254 20.5226 31.7813C20.9927 32.7583 21.12 34.7691 20.1532 36.1431C18.9378 37.8701 16.8312 38.4735 14.9478 37.6086C12.765 36.6063 12.597 33.4911 12.597 33.4911" stroke="#5E72E4" stroke-width="2" stroke-linecap="round"/>
</svg>
