<svg width="11" height="17" viewBox="0 0 11 17" fill="none" xmlns="http://www.w3.org/2000/svg">
<path fill-rule="evenodd" clip-rule="evenodd" d="M0.554443 11.22C0.554443 8.48862 2.76852 6.27454 5.4999 6.27454C8.23127 6.27454 10.4454 8.48862 10.4454 11.22C10.4454 13.9514 8.23127 16.1654 5.4999 16.1654C2.76852 16.1654 0.554443 13.9514 0.554443 11.22ZM5.74717 13.4454V11.9396C6.44868 11.8216 6.98353 11.2131 6.98353 10.4782C6.98353 9.65871 6.31936 8.99454 5.4999 8.99454C4.68044 8.99454 4.01626 9.65871 4.01626 10.4782C4.01626 11.2131 4.55111 11.8216 5.25263 11.9396V13.4454H5.74717Z" fill="#ADB5BD"/>
<path d="M2.77995 6.51198V4.04914C2.77995 2.54943 4.00024 1.32914 5.49995 1.32914C6.99966 1.32914 8.21995 2.54943 8.21995 4.04914H8.71449C8.71449 2.27669 7.2724 0.834595 5.49995 0.834595C3.72749 0.834595 2.2854 2.27669 2.2854 4.04914V6.83491C2.4439 6.71845 2.60908 6.61089 2.77995 6.51198Z" fill="#ADB5BD"/>
</svg>
