<svg width="31" height="39" viewBox="0 0 31 39" fill="none" xmlns="http://www.w3.org/2000/svg">
<path d="M1.67497 33.5614V3.12438C1.6766 2.56146 1.90095 2.02207 2.29899 1.62402C2.69704 1.22598 3.23643 1.00163 3.79935 1H27.8756C28.4385 1.00163 28.9779 1.22598 29.376 1.62402C29.774 2.02207 29.9984 2.56146 30 3.12438V34.2819C29.9972 35.2201 29.6233 36.119 28.9599 36.7824C28.2965 37.4458 27.3975 37.8197 26.4594 37.8225H1.67497" stroke="#DBE6F0" stroke-width="1.49323" stroke-linejoin="round"/>
<path d="M13.0049 8.0813H7.33988" stroke="#2DCE89" stroke-width="1.49323" stroke-linecap="round" stroke-linejoin="round"/>
<path d="M13.0049 13.7462H7.33988" stroke="#DBE6F0" stroke-width="1.49323" stroke-linecap="round" stroke-linejoin="round"/>
<path d="M24.335 19.4114H7.33994" stroke="#F5365C" stroke-width="1.49323" stroke-linecap="round" stroke-linejoin="round"/>
<path d="M24.335 25.0764H7.33994" stroke="#DBE6F0" stroke-width="1.49323" stroke-linecap="round" stroke-linejoin="round"/>
<path d="M24.335 30.7413H7.33994" stroke="#11CDEF" stroke-width="1.49323" stroke-linecap="round" stroke-linejoin="round"/>
<path d="M18.6701 15.1627H24.3351C24.7107 15.1627 25.0709 15.0135 25.3365 14.7479C25.6021 14.4823 25.7513 14.122 25.7513 13.7464V8.08141C25.7513 7.7058 25.6021 7.34557 25.3365 7.07997C25.0709 6.81437 24.7107 6.66516 24.3351 6.66516H18.6701C18.2945 6.66516 17.9342 6.81437 17.6686 7.07997C17.403 7.34557 17.2538 7.7058 17.2538 8.08141V13.7464C17.2538 14.122 17.403 14.4823 17.6686 14.7479C17.9342 15.0135 18.2945 15.1627 18.6701 15.1627Z" fill="#DBE6F0"/>
</svg>
