<svg width="13" height="12" viewBox="0 0 13 12" fill="none" xmlns="http://www.w3.org/2000/svg">
<path d="M8.64493 7.54717H8.10291L7.9108 7.36192C8.58318 6.57976 8.98799 5.56432 8.98799 4.45969C8.98799 1.99657 6.99142 0 4.52829 0C2.06517 0 0.0686035 1.99657 0.0686035 4.45969C0.0686035 6.92281 2.06517 8.91938 4.52829 8.91938C5.63293 8.91938 6.64836 8.51458 7.43052 7.8422L7.61577 8.03431V8.57633L11.0463 12L12.0686 10.9777L8.64493 7.54717ZM4.52829 7.54717C2.81989 7.54717 1.44082 6.1681 1.44082 4.45969C1.44082 2.75129 2.81989 1.37221 4.52829 1.37221C6.2367 1.37221 7.61577 2.75129 7.61577 4.45969C7.61577 6.1681 6.2367 7.54717 4.52829 7.54717Z" fill="#43638E"/>
</svg>
