<svg width="107" height="38" viewBox="0 0 107 38" fill="none" xmlns="http://www.w3.org/2000/svg">
<mask id="path-1-outside-1_596_13767" maskUnits="userSpaceOnUse" x="0" y="0.5" width="107" height="37" fill="black">
<rect fill="white" y="0.5" width="107" height="37"/>
<path d="M12.3245 9.55373V12.6759H1V9.55373H12.3245ZM4.2674 4.85276H8.74152V23.4437C8.74152 24.0351 8.82816 24.4904 9.00143 24.8097C9.18708 25.1172 9.44079 25.3241 9.76258 25.4306C10.0844 25.537 10.4619 25.5902 10.895 25.5902C11.2045 25.5902 11.5015 25.5725 11.7861 25.537C12.0708 25.5015 12.2998 25.466 12.473 25.4306L12.4916 28.6946C12.1203 28.8011 11.6871 28.8957 11.1921 28.9785C10.7094 29.0612 10.1524 29.1026 9.52124 29.1026C8.49399 29.1026 7.58431 28.9312 6.79222 28.5882C6.00012 28.2334 5.38129 27.6598 4.93574 26.8675C4.49018 26.0751 4.2674 25.0226 4.2674 23.7098V4.85276Z"/>
<path d="M14.478 19.3637V18.9557C14.478 17.572 14.6884 16.2888 15.1092 15.1062C15.53 13.9117 16.1365 12.8769 16.9286 12.0018C17.7331 11.1148 18.7108 10.4289 19.8618 9.94399C21.0252 9.44729 22.3371 9.19894 23.7976 9.19894C25.2704 9.19894 26.5823 9.44729 27.7333 9.94399C28.8967 10.4289 29.8806 11.1148 30.6851 12.0018C31.4896 12.8769 32.1022 13.9117 32.523 15.1062C32.9438 16.2888 33.1542 17.572 33.1542 18.9557V19.3637C33.1542 20.7473 32.9438 22.0305 32.523 23.2131C32.1022 24.3958 31.4896 25.4306 30.6851 26.3175C29.8806 27.1927 28.9029 27.8786 27.7519 28.3753C26.6009 28.8602 25.2951 29.1026 23.8347 29.1026C22.3619 29.1026 21.0438 28.8602 19.8804 28.3753C18.7294 27.8786 17.7516 27.1927 16.9472 26.3175C16.1427 25.4306 15.53 24.3958 15.1092 23.2131C14.6884 22.0305 14.478 20.7473 14.478 19.3637ZM18.9522 18.9557V19.3637C18.9522 20.227 19.045 21.043 19.2306 21.8117C19.4163 22.5804 19.7071 23.2545 20.1032 23.834C20.4992 24.4135 21.0067 24.8688 21.6255 25.1999C22.2443 25.5311 22.9807 25.6967 23.8347 25.6967C24.6639 25.6967 25.3818 25.5311 25.9882 25.1999C26.607 24.8688 27.1145 24.4135 27.5105 23.834C27.9066 23.2545 28.1974 22.5804 28.3831 21.8117C28.5811 21.043 28.6801 20.227 28.6801 19.3637V18.9557C28.6801 18.1042 28.5811 17.3 28.3831 16.5431C28.1974 15.7744 27.9004 15.0944 27.492 14.503C27.0959 13.9117 26.5885 13.4505 25.9697 13.1194C25.3632 12.7764 24.6392 12.6049 23.7976 12.6049C22.956 12.6049 22.2258 12.7764 21.6069 13.1194C21.0005 13.4505 20.4992 13.9117 20.1032 14.503C19.7071 15.0944 19.4163 15.7744 19.2306 16.5431C19.045 17.3 18.9522 18.1042 18.9522 18.9557Z"/>
<path d="M46.3909 1.5H50.865V24.65L50.4381 28.7478H46.3909V1.5ZM63.9718 18.9734V19.3459C63.9718 20.7651 63.8047 22.0719 63.4705 23.2663C63.1488 24.449 62.6537 25.4779 61.9854 26.353C61.3294 27.2282 60.5126 27.9082 59.5348 28.3931C58.5694 28.8661 57.4494 29.1026 56.1746 29.1026C54.9245 29.1026 53.8354 28.8779 52.9072 28.4285C51.9789 27.9791 51.1992 27.3405 50.568 26.5127C49.9492 25.6848 49.4479 24.6973 49.0643 23.5502C48.6806 22.403 48.4083 21.1376 48.2474 19.7539V18.5654C48.4083 17.1699 48.6806 15.9045 49.0643 14.7691C49.4479 13.622 49.9492 12.6345 50.568 11.8066C51.1992 10.967 51.9727 10.3224 52.8886 9.87304C53.8169 9.42364 54.8998 9.19894 56.1374 9.19894C57.4246 9.19894 58.5571 9.43546 59.5348 9.90852C60.5249 10.3816 61.348 11.0557 62.0039 11.9308C62.6599 12.7941 63.1488 13.823 63.4705 15.0175C63.8047 16.2119 63.9718 17.5306 63.9718 18.9734ZM59.4977 19.3459V18.9734C59.4977 18.1101 59.4234 17.3 59.2749 16.5431C59.1264 15.7744 58.8789 15.1003 58.5323 14.5208C58.1981 13.9413 57.7402 13.486 57.1585 13.1548C56.5892 12.8119 55.8775 12.6404 55.0236 12.6404C54.2315 12.6404 53.5508 12.7705 52.9814 13.0307C52.4121 13.2908 51.9356 13.6456 51.5519 14.095C51.1683 14.5444 50.865 15.0648 50.6423 15.6561C50.4319 16.2474 50.2895 16.886 50.2153 17.572V20.7828C50.3267 21.6698 50.5618 22.4858 50.9207 23.2309C51.292 23.9641 51.8119 24.5554 52.4802 25.0048C53.1485 25.4424 54.0087 25.6612 55.0607 25.6612C55.8899 25.6612 56.5892 25.5015 57.1585 25.1822C57.7278 24.8629 58.1796 24.4194 58.5137 23.8517C58.8603 23.2723 59.1078 22.5982 59.2563 21.8294C59.4172 21.0607 59.4977 20.2329 59.4977 19.3459Z"/>
<path d="M79.8447 24.2243V9.55373H84.3374V28.7478H80.1046L79.8447 24.2243ZM80.4759 20.2329L81.9796 20.1974C81.9796 21.4865 81.8311 22.675 81.5341 23.7631C81.2371 24.8392 80.7791 25.7794 80.1603 26.5836C79.5415 27.376 78.7494 27.9969 77.784 28.4463C76.8186 28.8838 75.6614 29.1026 74.3124 29.1026C73.3346 29.1026 72.4373 28.9666 71.6205 28.6946C70.8036 28.4226 70.0982 28.0028 69.5041 27.4351C68.9224 26.8675 68.4707 26.1283 68.1489 25.2177C67.8271 24.3071 67.6662 23.219 67.6662 21.9536V9.55373H72.1403V21.9891C72.1403 22.6869 72.2269 23.2723 72.4002 23.7453C72.5735 24.2065 72.8086 24.5791 73.1057 24.8629C73.4027 25.1467 73.7493 25.3478 74.1453 25.466C74.5414 25.5843 74.9622 25.6434 75.4077 25.6434C76.6825 25.6434 77.685 25.4069 78.4152 24.9339C79.1578 24.449 79.6838 23.7985 79.9932 22.9825C80.315 22.1665 80.4759 21.25 80.4759 20.2329Z"/>
<path d="M94.7522 26.6546L100.21 9.55373H105L96.9429 31.6749C96.7572 32.1479 96.5159 32.6624 96.2188 33.2182C95.9218 33.774 95.532 34.3003 95.0493 34.797C94.579 35.3055 93.9911 35.7135 93.2856 36.021C92.5801 36.3403 91.7262 36.5 90.7237 36.5C90.3276 36.5 89.9439 36.4645 89.5727 36.3936C89.2137 36.3344 88.8734 36.2694 88.5516 36.1984L88.533 32.9344C88.6568 32.9462 88.8053 32.958 88.9786 32.9698C89.1642 32.9817 89.3127 32.9876 89.4241 32.9876C90.1667 32.9876 90.7856 32.8989 91.2806 32.7215C91.7757 32.5559 92.1779 32.2839 92.4873 31.9055C92.8091 31.527 93.0814 31.0185 93.3042 30.3799L94.7522 26.6546ZM91.6705 9.55373L96.4416 23.9227L97.2399 28.4285L94.1396 29.1913L86.8436 9.55373H91.6705Z"/>
</mask>
<path d="M12.3245 9.55373V12.6759H1V9.55373H12.3245ZM4.2674 4.85276H8.74152V23.4437C8.74152 24.0351 8.82816 24.4904 9.00143 24.8097C9.18708 25.1172 9.44079 25.3241 9.76258 25.4306C10.0844 25.537 10.4619 25.5902 10.895 25.5902C11.2045 25.5902 11.5015 25.5725 11.7861 25.537C12.0708 25.5015 12.2998 25.466 12.473 25.4306L12.4916 28.6946C12.1203 28.8011 11.6871 28.8957 11.1921 28.9785C10.7094 29.0612 10.1524 29.1026 9.52124 29.1026C8.49399 29.1026 7.58431 28.9312 6.79222 28.5882C6.00012 28.2334 5.38129 27.6598 4.93574 26.8675C4.49018 26.0751 4.2674 25.0226 4.2674 23.7098V4.85276Z" fill="white"/>
<path d="M14.478 19.3637V18.9557C14.478 17.572 14.6884 16.2888 15.1092 15.1062C15.53 13.9117 16.1365 12.8769 16.9286 12.0018C17.7331 11.1148 18.7108 10.4289 19.8618 9.94399C21.0252 9.44729 22.3371 9.19894 23.7976 9.19894C25.2704 9.19894 26.5823 9.44729 27.7333 9.94399C28.8967 10.4289 29.8806 11.1148 30.6851 12.0018C31.4896 12.8769 32.1022 13.9117 32.523 15.1062C32.9438 16.2888 33.1542 17.572 33.1542 18.9557V19.3637C33.1542 20.7473 32.9438 22.0305 32.523 23.2131C32.1022 24.3958 31.4896 25.4306 30.6851 26.3175C29.8806 27.1927 28.9029 27.8786 27.7519 28.3753C26.6009 28.8602 25.2951 29.1026 23.8347 29.1026C22.3619 29.1026 21.0438 28.8602 19.8804 28.3753C18.7294 27.8786 17.7516 27.1927 16.9472 26.3175C16.1427 25.4306 15.53 24.3958 15.1092 23.2131C14.6884 22.0305 14.478 20.7473 14.478 19.3637ZM18.9522 18.9557V19.3637C18.9522 20.227 19.045 21.043 19.2306 21.8117C19.4163 22.5804 19.7071 23.2545 20.1032 23.834C20.4992 24.4135 21.0067 24.8688 21.6255 25.1999C22.2443 25.5311 22.9807 25.6967 23.8347 25.6967C24.6639 25.6967 25.3818 25.5311 25.9882 25.1999C26.607 24.8688 27.1145 24.4135 27.5105 23.834C27.9066 23.2545 28.1974 22.5804 28.3831 21.8117C28.5811 21.043 28.6801 20.227 28.6801 19.3637V18.9557C28.6801 18.1042 28.5811 17.3 28.3831 16.5431C28.1974 15.7744 27.9004 15.0944 27.492 14.503C27.0959 13.9117 26.5885 13.4505 25.9697 13.1194C25.3632 12.7764 24.6392 12.6049 23.7976 12.6049C22.956 12.6049 22.2258 12.7764 21.6069 13.1194C21.0005 13.4505 20.4992 13.9117 20.1032 14.503C19.7071 15.0944 19.4163 15.7744 19.2306 16.5431C19.045 17.3 18.9522 18.1042 18.9522 18.9557Z" fill="white"/>
<path d="M46.3909 1.5H50.865V24.65L50.4381 28.7478H46.3909V1.5ZM63.9718 18.9734V19.3459C63.9718 20.7651 63.8047 22.0719 63.4705 23.2663C63.1488 24.449 62.6537 25.4779 61.9854 26.353C61.3294 27.2282 60.5126 27.9082 59.5348 28.3931C58.5694 28.8661 57.4494 29.1026 56.1746 29.1026C54.9245 29.1026 53.8354 28.8779 52.9072 28.4285C51.9789 27.9791 51.1992 27.3405 50.568 26.5127C49.9492 25.6848 49.4479 24.6973 49.0643 23.5502C48.6806 22.403 48.4083 21.1376 48.2474 19.7539V18.5654C48.4083 17.1699 48.6806 15.9045 49.0643 14.7691C49.4479 13.622 49.9492 12.6345 50.568 11.8066C51.1992 10.967 51.9727 10.3224 52.8886 9.87304C53.8169 9.42364 54.8998 9.19894 56.1374 9.19894C57.4246 9.19894 58.5571 9.43546 59.5348 9.90852C60.5249 10.3816 61.348 11.0557 62.0039 11.9308C62.6599 12.7941 63.1488 13.823 63.4705 15.0175C63.8047 16.2119 63.9718 17.5306 63.9718 18.9734ZM59.4977 19.3459V18.9734C59.4977 18.1101 59.4234 17.3 59.2749 16.5431C59.1264 15.7744 58.8789 15.1003 58.5323 14.5208C58.1981 13.9413 57.7402 13.486 57.1585 13.1548C56.5892 12.8119 55.8775 12.6404 55.0236 12.6404C54.2315 12.6404 53.5508 12.7705 52.9814 13.0307C52.4121 13.2908 51.9356 13.6456 51.5519 14.095C51.1683 14.5444 50.865 15.0648 50.6423 15.6561C50.4319 16.2474 50.2895 16.886 50.2153 17.572V20.7828C50.3267 21.6698 50.5618 22.4858 50.9207 23.2309C51.292 23.9641 51.8119 24.5554 52.4802 25.0048C53.1485 25.4424 54.0087 25.6612 55.0607 25.6612C55.8899 25.6612 56.5892 25.5015 57.1585 25.1822C57.7278 24.8629 58.1796 24.4194 58.5137 23.8517C58.8603 23.2723 59.1078 22.5982 59.2563 21.8294C59.4172 21.0607 59.4977 20.2329 59.4977 19.3459Z" fill="white"/>
<path d="M79.8447 24.2243V9.55373H84.3374V28.7478H80.1046L79.8447 24.2243ZM80.4759 20.2329L81.9796 20.1974C81.9796 21.4865 81.8311 22.675 81.5341 23.7631C81.2371 24.8392 80.7791 25.7794 80.1603 26.5836C79.5415 27.376 78.7494 27.9969 77.784 28.4463C76.8186 28.8838 75.6614 29.1026 74.3124 29.1026C73.3346 29.1026 72.4373 28.9666 71.6205 28.6946C70.8036 28.4226 70.0982 28.0028 69.5041 27.4351C68.9224 26.8675 68.4707 26.1283 68.1489 25.2177C67.8271 24.3071 67.6662 23.219 67.6662 21.9536V9.55373H72.1403V21.9891C72.1403 22.6869 72.2269 23.2723 72.4002 23.7453C72.5735 24.2065 72.8086 24.5791 73.1057 24.8629C73.4027 25.1467 73.7493 25.3478 74.1453 25.466C74.5414 25.5843 74.9622 25.6434 75.4077 25.6434C76.6825 25.6434 77.685 25.4069 78.4152 24.9339C79.1578 24.449 79.6838 23.7985 79.9932 22.9825C80.315 22.1665 80.4759 21.25 80.4759 20.2329Z" fill="white"/>
<path d="M94.7522 26.6546L100.21 9.55373H105L96.9429 31.6749C96.7572 32.1479 96.5159 32.6624 96.2188 33.2182C95.9218 33.774 95.532 34.3003 95.0493 34.797C94.579 35.3055 93.9911 35.7135 93.2856 36.021C92.5801 36.3403 91.7262 36.5 90.7237 36.5C90.3276 36.5 89.9439 36.4645 89.5727 36.3936C89.2137 36.3344 88.8734 36.2694 88.5516 36.1984L88.533 32.9344C88.6568 32.9462 88.8053 32.958 88.9786 32.9698C89.1642 32.9817 89.3127 32.9876 89.4241 32.9876C90.1667 32.9876 90.7856 32.8989 91.2806 32.7215C91.7757 32.5559 92.1779 32.2839 92.4873 31.9055C92.8091 31.527 93.0814 31.0185 93.3042 30.3799L94.7522 26.6546ZM91.6705 9.55373L96.4416 23.9227L97.2399 28.4285L94.1396 29.1913L86.8436 9.55373H91.6705Z" fill="white"/>
<path d="M12.3245 9.55373V12.6759H1V9.55373H12.3245ZM4.2674 4.85276H8.74152V23.4437C8.74152 24.0351 8.82816 24.4904 9.00143 24.8097C9.18708 25.1172 9.44079 25.3241 9.76258 25.4306C10.0844 25.537 10.4619 25.5902 10.895 25.5902C11.2045 25.5902 11.5015 25.5725 11.7861 25.537C12.0708 25.5015 12.2998 25.466 12.473 25.4306L12.4916 28.6946C12.1203 28.8011 11.6871 28.8957 11.1921 28.9785C10.7094 29.0612 10.1524 29.1026 9.52124 29.1026C8.49399 29.1026 7.58431 28.9312 6.79222 28.5882C6.00012 28.2334 5.38129 27.6598 4.93574 26.8675C4.49018 26.0751 4.2674 25.0226 4.2674 23.7098V4.85276Z" stroke="white" stroke-width="2" mask="url(#path-1-outside-1_596_13767)"/>
<path d="M14.478 19.3637V18.9557C14.478 17.572 14.6884 16.2888 15.1092 15.1062C15.53 13.9117 16.1365 12.8769 16.9286 12.0018C17.7331 11.1148 18.7108 10.4289 19.8618 9.94399C21.0252 9.44729 22.3371 9.19894 23.7976 9.19894C25.2704 9.19894 26.5823 9.44729 27.7333 9.94399C28.8967 10.4289 29.8806 11.1148 30.6851 12.0018C31.4896 12.8769 32.1022 13.9117 32.523 15.1062C32.9438 16.2888 33.1542 17.572 33.1542 18.9557V19.3637C33.1542 20.7473 32.9438 22.0305 32.523 23.2131C32.1022 24.3958 31.4896 25.4306 30.6851 26.3175C29.8806 27.1927 28.9029 27.8786 27.7519 28.3753C26.6009 28.8602 25.2951 29.1026 23.8347 29.1026C22.3619 29.1026 21.0438 28.8602 19.8804 28.3753C18.7294 27.8786 17.7516 27.1927 16.9472 26.3175C16.1427 25.4306 15.53 24.3958 15.1092 23.2131C14.6884 22.0305 14.478 20.7473 14.478 19.3637ZM18.9522 18.9557V19.3637C18.9522 20.227 19.045 21.043 19.2306 21.8117C19.4163 22.5804 19.7071 23.2545 20.1032 23.834C20.4992 24.4135 21.0067 24.8688 21.6255 25.1999C22.2443 25.5311 22.9807 25.6967 23.8347 25.6967C24.6639 25.6967 25.3818 25.5311 25.9882 25.1999C26.607 24.8688 27.1145 24.4135 27.5105 23.834C27.9066 23.2545 28.1974 22.5804 28.3831 21.8117C28.5811 21.043 28.6801 20.227 28.6801 19.3637V18.9557C28.6801 18.1042 28.5811 17.3 28.3831 16.5431C28.1974 15.7744 27.9004 15.0944 27.492 14.503C27.0959 13.9117 26.5885 13.4505 25.9697 13.1194C25.3632 12.7764 24.6392 12.6049 23.7976 12.6049C22.956 12.6049 22.2258 12.7764 21.6069 13.1194C21.0005 13.4505 20.4992 13.9117 20.1032 14.503C19.7071 15.0944 19.4163 15.7744 19.2306 16.5431C19.045 17.3 18.9522 18.1042 18.9522 18.9557Z" stroke="white" stroke-width="2" mask="url(#path-1-outside-1_596_13767)"/>
<path d="M46.3909 1.5H50.865V24.65L50.4381 28.7478H46.3909V1.5ZM63.9718 18.9734V19.3459C63.9718 20.7651 63.8047 22.0719 63.4705 23.2663C63.1488 24.449 62.6537 25.4779 61.9854 26.353C61.3294 27.2282 60.5126 27.9082 59.5348 28.3931C58.5694 28.8661 57.4494 29.1026 56.1746 29.1026C54.9245 29.1026 53.8354 28.8779 52.9072 28.4285C51.9789 27.9791 51.1992 27.3405 50.568 26.5127C49.9492 25.6848 49.4479 24.6973 49.0643 23.5502C48.6806 22.403 48.4083 21.1376 48.2474 19.7539V18.5654C48.4083 17.1699 48.6806 15.9045 49.0643 14.7691C49.4479 13.622 49.9492 12.6345 50.568 11.8066C51.1992 10.967 51.9727 10.3224 52.8886 9.87304C53.8169 9.42364 54.8998 9.19894 56.1374 9.19894C57.4246 9.19894 58.5571 9.43546 59.5348 9.90852C60.5249 10.3816 61.348 11.0557 62.0039 11.9308C62.6599 12.7941 63.1488 13.823 63.4705 15.0175C63.8047 16.2119 63.9718 17.5306 63.9718 18.9734ZM59.4977 19.3459V18.9734C59.4977 18.1101 59.4234 17.3 59.2749 16.5431C59.1264 15.7744 58.8789 15.1003 58.5323 14.5208C58.1981 13.9413 57.7402 13.486 57.1585 13.1548C56.5892 12.8119 55.8775 12.6404 55.0236 12.6404C54.2315 12.6404 53.5508 12.7705 52.9814 13.0307C52.4121 13.2908 51.9356 13.6456 51.5519 14.095C51.1683 14.5444 50.865 15.0648 50.6423 15.6561C50.4319 16.2474 50.2895 16.886 50.2153 17.572V20.7828C50.3267 21.6698 50.5618 22.4858 50.9207 23.2309C51.292 23.9641 51.8119 24.5554 52.4802 25.0048C53.1485 25.4424 54.0087 25.6612 55.0607 25.6612C55.8899 25.6612 56.5892 25.5015 57.1585 25.1822C57.7278 24.8629 58.1796 24.4194 58.5137 23.8517C58.8603 23.2723 59.1078 22.5982 59.2563 21.8294C59.4172 21.0607 59.4977 20.2329 59.4977 19.3459Z" stroke="white" stroke-width="2" mask="url(#path-1-outside-1_596_13767)"/>
<path d="M79.8447 24.2243V9.55373H84.3374V28.7478H80.1046L79.8447 24.2243ZM80.4759 20.2329L81.9796 20.1974C81.9796 21.4865 81.8311 22.675 81.5341 23.7631C81.2371 24.8392 80.7791 25.7794 80.1603 26.5836C79.5415 27.376 78.7494 27.9969 77.784 28.4463C76.8186 28.8838 75.6614 29.1026 74.3124 29.1026C73.3346 29.1026 72.4373 28.9666 71.6205 28.6946C70.8036 28.4226 70.0982 28.0028 69.5041 27.4351C68.9224 26.8675 68.4707 26.1283 68.1489 25.2177C67.8271 24.3071 67.6662 23.219 67.6662 21.9536V9.55373H72.1403V21.9891C72.1403 22.6869 72.2269 23.2723 72.4002 23.7453C72.5735 24.2065 72.8086 24.5791 73.1057 24.8629C73.4027 25.1467 73.7493 25.3478 74.1453 25.466C74.5414 25.5843 74.9622 25.6434 75.4077 25.6434C76.6825 25.6434 77.685 25.4069 78.4152 24.9339C79.1578 24.449 79.6838 23.7985 79.9932 22.9825C80.315 22.1665 80.4759 21.25 80.4759 20.2329Z" stroke="white" stroke-width="2" mask="url(#path-1-outside-1_596_13767)"/>
<path d="M94.7522 26.6546L100.21 9.55373H105L96.9429 31.6749C96.7572 32.1479 96.5159 32.6624 96.2188 33.2182C95.9218 33.774 95.532 34.3003 95.0493 34.797C94.579 35.3055 93.9911 35.7135 93.2856 36.021C92.5801 36.3403 91.7262 36.5 90.7237 36.5C90.3276 36.5 89.9439 36.4645 89.5727 36.3936C89.2137 36.3344 88.8734 36.2694 88.5516 36.1984L88.533 32.9344C88.6568 32.9462 88.8053 32.958 88.9786 32.9698C89.1642 32.9817 89.3127 32.9876 89.4241 32.9876C90.1667 32.9876 90.7856 32.8989 91.2806 32.7215C91.7757 32.5559 92.1779 32.2839 92.4873 31.9055C92.8091 31.527 93.0814 31.0185 93.3042 30.3799L94.7522 26.6546ZM91.6705 9.55373L96.4416 23.9227L97.2399 28.4285L94.1396 29.1913L86.8436 9.55373H91.6705Z" stroke="white" stroke-width="2" mask="url(#path-1-outside-1_596_13767)"/>
</svg>
