<svg width="38" height="40" viewBox="0 0 38 40" fill="none" xmlns="http://www.w3.org/2000/svg">
<g filter="url(#filter0_dd_10_1301)">
<rect x="6" y="2" width="26" height="28" rx="4" fill="#1DA1F2"/>
</g>
<path d="M22.5173 13.9643C22.2584 14.0759 21.9771 14.1562 21.6869 14.1875C21.986 14.0089 22.2137 13.7277 22.3209 13.3929C22.0441 13.558 21.7316 13.6786 21.4057 13.7411C21.1423 13.4598 20.7673 13.2857 20.3521 13.2857C19.553 13.2857 18.9102 13.933 18.9102 14.7277C18.9102 14.8393 18.9235 14.9509 18.9459 15.058C17.7494 14.9955 16.6825 14.4241 15.9727 13.5491C15.8477 13.7634 15.7762 14.0089 15.7762 14.2768C15.7762 14.7768 16.0307 15.2187 16.4191 15.4777C16.1825 15.4687 15.9593 15.4018 15.7673 15.2946C15.7673 15.2991 15.7673 15.308 15.7673 15.3125C15.7673 16.0134 16.2628 16.5938 16.9235 16.7277C16.803 16.7589 16.6735 16.7768 16.5441 16.7768C16.4503 16.7768 16.361 16.7679 16.2718 16.7545C16.4548 17.3259 16.986 17.7411 17.62 17.7545C17.1244 18.1429 16.5039 18.3705 15.8298 18.3705C15.7093 18.3705 15.5977 18.3661 15.4816 18.3527C16.12 18.7634 16.8789 19 17.6959 19C20.3477 19 21.7985 16.8036 21.7985 14.8973C21.7985 14.8348 21.7985 14.7723 21.7941 14.7098C22.0753 14.5045 22.3209 14.25 22.5173 13.9643Z" fill="white"/>
<defs>
<filter id="filter0_dd_10_1301" x="0" y="0" width="38" height="40" filterUnits="userSpaceOnUse" color-interpolation-filters="sRGB">
<feFlood flood-opacity="0" result="BackgroundImageFix"/>
<feColorMatrix in="SourceAlpha" type="matrix" values="0 0 0 0 0 0 0 0 0 0 0 0 0 0 0 0 0 0 127 0" result="hardAlpha"/>
<feOffset dy="1"/>
<feGaussianBlur stdDeviation="1.5"/>
<feColorMatrix type="matrix" values="0 0 0 0 0 0 0 0 0 0 0 0 0 0 0 0 0 0 0.08 0"/>
<feBlend mode="normal" in2="BackgroundImageFix" result="effect1_dropShadow_10_1301"/>
<feColorMatrix in="SourceAlpha" type="matrix" values="0 0 0 0 0 0 0 0 0 0 0 0 0 0 0 0 0 0 127 0" result="hardAlpha"/>
<feOffset dy="4"/>
<feGaussianBlur stdDeviation="3"/>
<feColorMatrix type="matrix" values="0 0 0 0 0.196078 0 0 0 0 0.196078 0 0 0 0 0.364706 0 0 0 0.11 0"/>
<feBlend mode="normal" in2="effect1_dropShadow_10_1301" result="effect2_dropShadow_10_1301"/>
<feBlend mode="normal" in="SourceGraphic" in2="effect2_dropShadow_10_1301" result="shape"/>
</filter>
</defs>
</svg>
