<svg width="25" height="28" viewBox="0 0 25 28" fill="none" xmlns="http://www.w3.org/2000/svg">
<path d="M12.2019 2C6.23792 2 1.40192 6.836 1.40192 12.8C1.40192 17.804 4.80992 22.004 9.42992 23.228L12.2019 26L14.9739 23.228C19.5939 22.004 23.0019 17.804 23.0019 12.8C23.0019 6.836 18.1659 2 12.2019 2Z" fill="white"/>
<path d="M9.42992 23.228L10.2874 22.3705L10.0564 22.1394L9.74049 22.0557L9.42992 23.228ZM12.2019 26L11.3444 26.8575L12.2019 27.715L13.0594 26.8575L12.2019 26ZM14.9739 23.228L14.6633 22.0557L14.3475 22.1394L14.1164 22.3705L14.9739 23.228ZM12.2019 0.787305C5.56816 0.787305 0.189222 6.16625 0.189222 12.8H2.61461C2.61461 7.50575 6.90767 3.2127 12.2019 3.2127V0.787305ZM0.189222 12.8C0.189222 18.3696 3.98268 23.0394 9.11934 24.4003L9.74049 22.0557C5.63716 20.9686 2.61461 17.2384 2.61461 12.8H0.189222ZM8.57241 24.0855L11.3444 26.8575L13.0594 25.1425L10.2874 22.3705L8.57241 24.0855ZM13.0594 26.8575L15.8314 24.0855L14.1164 22.3705L11.3444 25.1425L13.0594 26.8575ZM15.2845 24.4003C20.4212 23.0394 24.2146 18.3696 24.2146 12.8H21.7892C21.7892 17.2384 18.7667 20.9686 14.6633 22.0557L15.2845 24.4003ZM24.2146 12.8C24.2146 6.16625 18.8357 0.787305 12.2019 0.787305V3.2127C17.4962 3.2127 21.7892 7.50575 21.7892 12.8H24.2146Z" fill="#F7FAFC"/>
<path d="M12.2019 2C6.23792 2 1.40192 6.836 1.40192 12.8C1.40192 17.804 4.80992 22.004 9.42992 23.228L12.2019 26L14.9739 23.228C19.5939 22.004 23.0019 17.804 23.0019 12.8C23.0019 6.836 18.1659 2 12.2019 2ZM12.2019 4.4C14.1939 4.4 15.8019 6.008 15.8019 8C15.8019 9.992 14.1939 11.6 12.2019 11.6C10.2099 11.6 8.60192 9.992 8.60192 8C8.60192 6.008 10.2099 4.4 12.2019 4.4ZM12.2019 21.56C9.20192 21.56 6.54992 20.024 5.00192 17.696C5.03792 15.308 9.80192 14 12.2019 14C14.5899 14 19.3659 15.308 19.4019 17.696C17.8539 20.024 15.2019 21.56 12.2019 21.56Z" fill="#56CCF2"/>
</svg>
